<svg width="151" height="12" viewBox="0 0 151 12" fill="none" xmlns="http://www.w3.org/2000/svg">
<path d="M148.199 3.83203C147.345 3.83203 146.897 4.08403 146.561 4.36403C146.239 4.64403 146.029 4.93803 145.889 5.31603C145.553 4.37803 144.755 3.83203 143.649 3.83203C142.837 3.83203 142.333 4.09803 142.011 4.36403C141.717 4.60203 141.577 4.84003 141.493 5.05003V4.00003H140.247V11H141.493V7.13603C141.493 6.01603 141.801 5.55403 142.137 5.24603C142.389 5.02203 142.739 4.86803 143.173 4.86803C143.439 4.86803 143.957 4.88203 144.349 5.26003C144.769 5.65203 144.769 6.22603 144.769 6.88403V11H146.057V7.13603C146.057 6.01603 146.365 5.55403 146.701 5.24603C146.967 5.00803 147.317 4.86803 147.737 4.86803C148.003 4.86803 148.521 4.88203 148.913 5.26003C149.333 5.65203 149.333 6.22603 149.333 6.88403V11H150.621V6.46403C150.621 4.72803 149.767 3.83203 148.199 3.83203Z" fill="#F2F2F2"/>
<path d="M135.807 4.68603C135.135 4.68603 134.477 4.89603 134.057 5.34403L134.477 2.51603H138.439V1.41003H133.455L132.713 6.59003L133.777 6.67404C134.225 6.07203 134.799 5.79204 135.625 5.79204C136.983 5.79204 137.753 6.50603 137.753 7.80803C137.753 9.34803 137.011 10.118 135.611 10.118C134.589 10.118 133.735 9.37604 133.735 7.90604L132.517 8.08804C132.517 9.92204 133.735 11.168 135.555 11.168C137.795 11.168 138.943 9.69804 138.943 7.90604C138.943 5.63804 137.487 4.68603 135.807 4.68603Z" fill="#F2F2F2"/>
<path d="M130.438 7.73804V1.41003H129.403L125.062 7.58403V8.81604H129.192V11H130.438V8.81604H131.67V7.73804H130.438ZM127.569 7.73804C127.275 7.73804 126.687 7.75204 126.211 7.76604C126.561 7.27604 126.98 6.67403 127.246 6.28203L128.114 5.02203C128.38 4.65803 128.884 3.90203 129.22 3.31403C129.192 4.01403 129.192 4.85403 129.192 5.27403V7.73804H127.569Z" fill="#F2F2F2"/>
<path d="M120.551 4.61595C120.047 4.08395 119.389 3.83195 118.465 3.83195C117.485 3.83195 116.701 4.20995 116.309 5.04995V1.19995H115.049V11H116.309V7.06595C116.309 5.03595 117.499 4.88195 118.129 4.88195C118.521 4.88195 118.983 4.89595 119.375 5.28795C119.809 5.69395 119.795 6.23995 119.795 6.88395V11H121.097V6.81395C121.097 6.07195 121.083 5.18995 120.551 4.61595Z" fill="#F2F2F2"/>
<path d="M112.109 5.83394C112.837 5.44194 113.271 4.69994 113.271 3.92994C113.271 2.06794 111.927 1.24194 110.387 1.24194C108.623 1.24194 107.377 2.44594 107.349 4.15394L108.609 4.34994C108.581 3.78994 108.791 2.27794 110.387 2.27794C111.437 2.27794 112.039 2.90794 112.039 3.91594C112.039 4.89594 111.241 5.42794 110.317 5.42794H109.701V6.54794H110.485C111.563 6.54794 112.417 6.99594 112.417 8.24194C112.417 9.44594 111.689 10.1179 110.401 10.1179C109.043 10.1179 108.427 9.10994 108.441 7.87794L107.223 8.05994C107.195 9.85194 108.343 11.1679 110.401 11.1679C112.179 11.1679 113.663 10.1879 113.663 8.22794C113.663 7.21994 113.187 6.14194 112.109 5.83394Z" fill="#F2F2F2"/>
<path d="M102.702 11.1679C105.04 11.1679 106.174 9.13794 106.174 6.19794C106.174 3.29994 105.04 1.24194 102.702 1.24194C100.364 1.24194 99.2441 3.28594 99.2441 6.19794C99.2441 9.47394 100.448 11.1679 102.702 11.1679ZM102.702 10.1179C101.022 10.1179 100.588 8.77394 100.588 6.19794C100.588 4.92394 100.7 3.94394 101.022 3.28594C101.344 2.65594 101.862 2.31994 102.702 2.31994C104.424 2.31994 104.83 3.70594 104.83 6.19794C104.83 7.75194 104.662 8.88594 104.13 9.52994C103.808 9.90794 103.346 10.1179 102.702 10.1179Z" fill="#F2F2F2"/>
<path d="M91.7385 11.49L95.8545 0.709961H94.5945L90.4785 11.49H91.7385Z" fill="#F2F2F2"/>
<path d="M86.336 4.61603C85.832 4.08403 85.174 3.83203 84.25 3.83203C83.13 3.83203 82.444 4.28003 82.094 5.06403V4.00003H80.834V11H82.094V7.13603C82.094 5.13403 83.298 4.88203 83.914 4.88203C84.306 4.88203 84.768 4.89603 85.16 5.28803C85.594 5.69403 85.58 6.26803 85.58 6.91203V11H86.882V6.84203C86.882 6.10003 86.868 5.19003 86.336 4.61603Z" fill="#F2F2F2"/>
<path d="M76.0566 11.168C78.1566 11.168 79.5426 9.69803 79.5426 7.50003C79.5426 5.38603 78.1986 3.83203 76.0566 3.83203C73.8866 3.83203 72.5566 5.37203 72.5566 7.50003C72.5566 9.78203 73.8726 11.168 76.0566 11.168ZM76.0566 10.174C75.3566 10.174 74.8666 9.99203 74.5306 9.64203C74.0826 9.18003 73.9146 8.43803 73.9146 7.50003C73.9146 6.56203 74.0826 5.82003 74.5306 5.35803C74.8666 5.00803 75.3706 4.82603 76.0566 4.82603C76.7706 4.82603 77.2606 5.03603 77.5966 5.40003C78.0166 5.86203 78.1846 6.59003 78.1846 7.50003C78.1846 8.41003 78.0166 9.12403 77.6106 9.58603C77.2746 9.96403 76.7706 10.174 76.0566 10.174Z" fill="#F2F2F2"/>
<path d="M68.8138 11.168C70.2278 11.168 71.6978 10.678 71.6978 8.97003C71.6978 7.33203 70.2558 7.09403 68.8558 6.80003C68.0158 6.61803 67.1758 6.43603 67.1758 5.79203C67.1758 5.14803 67.8898 4.82603 68.5758 4.82603C69.6818 4.82603 70.3118 5.34403 70.3398 6.31003L71.5158 6.12803C71.3618 4.42003 70.0738 3.83203 68.5898 3.83203C67.3438 3.83203 65.9998 4.42003 65.9998 5.87603C65.9998 7.26203 67.1198 7.59803 68.2538 7.89203C69.2198 8.14403 70.5078 8.24203 70.5078 9.04003C70.5078 9.78203 69.9338 10.174 68.7858 10.174C67.6938 10.174 66.9798 9.57203 66.9938 8.59203L65.8458 8.70403C65.8318 10.44 67.2458 11.168 68.8138 11.168Z" fill="#F2F2F2"/>
<path d="M65.2298 9.96403C65.0478 10.006 64.9358 10.02 64.8238 10.02C64.4178 10.02 64.4178 9.85203 64.4178 9.48803V6.14203C64.4178 4.61603 63.5218 3.83203 61.7578 3.83203C60.8618 3.83203 60.1198 4.01403 59.6158 4.35003C59.0698 4.71403 58.7758 5.33003 58.7478 6.17003L59.9798 6.33803C59.9798 5.27403 60.4698 4.82603 61.6878 4.82603C62.3038 4.82603 62.7658 5.00803 62.9618 5.28803C63.1718 5.58203 63.1998 5.93203 63.1998 6.56203L60.8898 7.01003C59.7838 7.22003 58.5098 7.64003 58.5098 9.15203C58.5098 10.524 59.6858 11.168 60.8618 11.168C62.0518 11.168 62.8218 10.762 63.2138 9.96403C63.2838 10.692 63.7038 11.056 64.4738 11.056C64.7538 11.056 64.9918 11.042 65.2578 11L65.2298 9.96403ZM63.1998 8.35403C63.1998 9.36203 62.5838 10.16 61.0578 10.16C60.3718 10.16 59.7978 9.79603 59.7978 9.13803C59.7978 8.34003 60.3438 8.13003 61.0858 7.96203L63.1998 7.50003V8.35403Z" fill="#F2F2F2"/>
<path d="M57.0002 5.21803C56.4262 4.30803 55.3762 3.83203 54.2702 3.83203C53.2622 3.83203 52.4082 4.18203 51.7922 4.88203C51.2042 5.54003 50.9102 6.45003 50.9102 7.48603C50.9102 8.57803 51.1762 9.48803 51.7642 10.146C52.3662 10.846 53.2062 11.168 54.2842 11.168C56.0622 11.168 57.1822 10.328 57.4902 8.69003L56.2722 8.59203C56.1042 9.65603 55.4602 10.16 54.2702 10.16C52.9542 10.16 52.3102 9.41803 52.2822 7.87803H57.5882C57.6442 6.88403 57.4202 5.89003 57.0002 5.21803ZM54.2842 4.85403C55.0402 4.85403 55.5582 5.07803 55.9222 5.61003C56.1462 5.94603 56.2862 6.47803 56.3002 6.85603H52.2962C52.2962 6.50603 52.3802 6.03003 52.6322 5.61003C52.9122 5.14803 53.5002 4.85403 54.2842 4.85403Z" fill="#F2F2F2"/>
<path d="M46.1134 11.168C48.0034 11.168 50.0614 10.524 50.0614 8.14398C50.0614 6.05798 48.3954 5.70798 46.4494 5.39998C45.1194 5.18998 43.6354 4.83998 43.6354 3.73398C43.6354 2.58598 44.8254 2.08198 45.7774 2.08198C47.3874 2.08198 48.3674 2.92198 48.3954 4.39198L49.7114 4.15398C49.5014 1.82998 47.8354 1.03198 45.8054 1.03198C44.2094 1.03198 42.3334 1.78798 42.3334 3.78998C42.3334 5.66598 44.0134 6.19798 45.5394 6.56198C47.0094 6.91198 48.7454 6.88398 48.7454 8.24198C48.7454 9.66998 47.5134 10.104 46.0714 10.104C44.5594 10.104 43.4114 9.23598 43.4114 7.66798L42.0674 7.80798C42.0674 10.09 43.9574 11.168 46.1134 11.168Z" fill="#F2F2F2"/>
<path d="M36.5939 1.41003C36.3839 2.60003 35.5019 3.17403 33.9199 3.17403V4.25203C34.0319 4.26603 34.1719 4.28003 34.2979 4.28003C35.1659 4.28003 35.9499 4.09803 36.3279 3.63603V11H37.5739V1.41003H36.5939Z" fill="#F2F2F2"/>
<path d="M29.6933 11.1679C32.0313 11.1679 33.1654 9.13794 33.1654 6.19794C33.1654 3.29994 32.0313 1.24194 29.6933 1.24194C27.3553 1.24194 26.2354 3.28594 26.2354 6.19794C26.2354 9.47394 27.4393 11.1679 29.6933 11.1679ZM29.6933 10.1179C28.0133 10.1179 27.5794 8.77394 27.5794 6.19794C27.5794 4.92394 27.6914 3.94394 28.0134 3.28594C28.3354 2.65594 28.8533 2.31994 29.6933 2.31994C31.4153 2.31994 31.8214 3.70594 31.8214 6.19794C31.8214 7.75194 31.6534 8.88594 31.1214 9.52994C30.7994 9.90794 30.3373 10.1179 29.6933 10.1179Z" fill="#F2F2F2"/>
<path d="M18.7287 11.49L22.8447 0.709961H21.5847L17.4688 11.49H18.7287Z" fill="#F2F2F2"/>
<path d="M11.6849 9.642V6.982H14.3169V6.04399H11.6849V3.37H10.6909V6.04399H8.04492V6.982H10.6909V9.642H11.6849Z" fill="#F2F2F2"/>
<path d="M4.2282 4.74194C3.2762 4.74194 2.3522 5.14794 1.8202 6.08594C1.8202 4.22394 2.2122 2.29194 4.1442 2.29194C5.2642 2.29194 5.6982 3.01994 5.7822 3.92994L6.9442 3.73394C6.7622 2.41794 5.9642 1.24194 4.1862 1.24194C1.4702 1.24194 0.658203 3.38394 0.658203 6.49194C0.658203 8.52194 1.1342 11.1679 3.9622 11.1679C6.3702 11.1679 7.1822 9.34794 7.1822 7.90594C7.1822 6.09994 6.0622 4.74194 4.2282 4.74194ZM3.9482 10.1179C2.5902 10.1179 1.9882 9.15194 1.9882 7.96194C1.9882 6.64594 2.7582 5.81994 4.0182 5.81994C5.3342 5.81994 5.9922 6.53394 5.9922 7.89194C5.9922 9.43194 5.3202 10.1179 3.9482 10.1179Z" fill="#F2F2F2"/>
</svg>
