<svg width="244" height="45" viewBox="0 0 244 45" fill="none" xmlns="http://www.w3.org/2000/svg">
<path d="M82.357 24.3361C85.767 24.3361 88.4071 26.9321 88.4071 30.4741C88.4071 33.9501 85.767 36.5681 82.357 36.5681C78.991 36.5681 76.373 33.9501 76.373 30.4741C76.373 26.9321 78.991 24.3361 82.357 24.3361ZM82.357 35.6881C85.261 35.6881 87.417 33.4661 87.417 30.4741C87.417 27.4381 85.261 25.1941 82.357 25.1941C79.497 25.1941 77.341 27.4381 77.341 30.4741C77.341 33.4661 79.497 35.6881 82.357 35.6881ZM85.0191 32.0581C85.0191 33.0261 85.107 33.3781 85.459 33.7081V33.8841H84.2271C83.9411 33.4661 83.919 33.0921 83.875 31.9921C83.853 31.3541 83.567 31.1121 82.313 31.1121H81.147V33.8841H79.981V26.9101H82.841C83.919 26.9101 85.173 27.4381 85.173 29.0001C85.173 29.7481 84.821 30.2981 84.271 30.6281C84.799 30.9141 85.0191 31.4641 85.0191 32.0581ZM81.147 27.9661V30.0781H82.577C83.391 30.0781 84.007 29.9241 84.007 29.0001C84.007 28.1861 83.391 27.9661 82.577 27.9661H81.147Z" fill="white"/>
<path d="M70.338 40.264C67.874 40.264 65.652 39.12 65.674 36.392L67.478 36.216C67.456 37.756 68.578 38.702 70.294 38.702C72.098 38.702 73 38.086 73 36.92C73 35.666 70.976 35.512 69.458 35.116C67.676 34.654 65.916 34.126 65.916 31.948C65.916 29.66 68.028 28.736 69.986 28.736C72.318 28.736 74.342 29.66 74.584 32.344L72.736 32.63C72.692 31.112 71.702 30.298 69.964 30.298C68.886 30.298 67.764 30.804 67.764 31.816C67.764 32.828 69.084 33.114 70.404 33.4C72.604 33.862 74.87 34.236 74.87 36.81C74.87 39.494 72.56 40.264 70.338 40.264Z" fill="white"/>
<path d="M61.0184 34.94L63.1304 29H65.1984L60.7104 41.012C59.8084 43.432 59.0164 44.51 57.4984 44.51C56.9704 44.51 56.3764 44.444 55.8264 44.29L55.8704 42.442C56.2664 42.574 56.7284 42.684 57.2344 42.684C58.0484 42.684 58.4224 41.782 59.1484 39.912L54.8584 29H56.9704L59.0604 34.94C59.3244 35.688 59.6764 36.766 60.0284 37.866C60.4684 36.524 60.7104 35.82 61.0184 34.94Z" fill="white"/>
<path d="M49.3091 28.714C52.2791 28.714 54.3031 31.024 54.3031 34.5C54.3031 38.086 52.1691 40.264 49.2431 40.264C47.7691 40.264 46.5811 39.648 45.7671 38.394V40H43.7871V24.6H45.7671V30.43C46.6031 29.264 47.7691 28.714 49.3091 28.714ZM51.2891 37.844C51.9271 37.096 52.1251 35.952 52.1251 34.5C52.1251 31.86 51.3111 30.276 48.8471 30.276C47.6811 30.276 46.9331 30.694 46.4711 31.332C45.8551 32.146 45.7011 33.356 45.7011 34.522C45.7011 37.294 46.7791 38.746 48.8911 38.746C50.0131 38.746 50.7831 38.416 51.2891 37.844Z" fill="white"/>
<path d="M34.3685 40.2641C29.7045 40.2641 27.0645 37.4261 27.0645 32.3001C27.0645 27.6361 29.6385 24.3361 34.3685 24.3361C39.0325 24.3361 41.6505 27.6581 41.6505 32.3001C41.6505 37.0081 39.0325 40.2641 34.3685 40.2641ZM34.3685 38.5481C36.1945 38.5481 37.4265 37.9761 38.2185 36.8321C38.9885 35.7321 39.4065 34.2801 39.4065 32.3001C39.4065 30.2981 38.9885 28.8901 38.2185 27.7901C37.4265 26.6461 36.1945 26.0521 34.4565 26.0521C32.4545 26.0521 31.1345 26.8441 30.4745 27.7021C29.7265 28.6921 29.3085 30.3201 29.3085 32.3001C29.3085 34.4341 29.8145 36.0621 30.4085 36.8321C31.2665 37.9321 32.6305 38.5481 34.3685 38.5481Z" fill="white"/>
<path d="M17.6834 34.94L19.7954 29H21.8634L17.3754 41.012C16.4734 43.432 15.6814 44.51 14.1634 44.51C13.6354 44.51 13.0414 44.444 12.4914 44.29L12.5354 42.442C12.9314 42.574 13.3934 42.684 13.8994 42.684C14.7134 42.684 15.0874 41.782 15.8134 39.912L11.5234 29H13.6354L15.7254 34.94C15.9894 35.688 16.3414 36.766 16.6934 37.866C17.1334 36.524 17.3754 35.82 17.6834 34.94Z" fill="white"/>
<path d="M5.97415 28.714C8.94415 28.714 10.9681 31.024 10.9681 34.5C10.9681 38.086 8.83415 40.264 5.90815 40.264C4.43415 40.264 3.24615 39.648 2.43215 38.394V40H0.452148V24.6H2.43215V30.43C3.26815 29.264 4.43415 28.714 5.97415 28.714ZM7.95415 37.844C8.59215 37.096 8.79015 35.952 8.79015 34.5C8.79015 31.86 7.97615 30.276 5.51215 30.276C4.34615 30.276 3.59815 30.694 3.13615 31.332C2.52015 32.146 2.36615 33.356 2.36615 34.522C2.36615 37.294 3.44415 38.746 5.55615 38.746C6.67815 38.746 7.44815 38.416 7.95415 37.844Z" fill="white"/>
<path d="M237.907 0.33606C241.317 0.33606 243.957 2.93206 243.957 6.47406C243.957 9.95006 241.317 12.5681 237.907 12.5681C234.541 12.5681 231.923 9.95006 231.923 6.47406C231.923 2.93206 234.541 0.33606 237.907 0.33606ZM237.907 11.6881C240.811 11.6881 242.967 9.46606 242.967 6.47406C242.967 3.43806 240.811 1.19406 237.907 1.19406C235.047 1.19406 232.891 3.43806 232.891 6.47406C232.891 9.46606 235.047 11.6881 237.907 11.6881ZM240.569 8.05806C240.569 9.02606 240.657 9.37806 241.009 9.70806V9.88406H239.777C239.491 9.46606 239.469 9.09206 239.425 7.99206C239.403 7.35406 239.117 7.11206 237.863 7.11206H236.697V9.88406H235.531V2.91006H238.391C239.469 2.91006 240.723 3.43806 240.723 5.00006C240.723 5.74806 240.371 6.29806 239.821 6.62806C240.349 6.91406 240.569 7.46406 240.569 8.05806ZM236.697 3.96606V6.07806H238.127C238.941 6.07806 239.557 5.92406 239.557 5.00006C239.557 4.18606 238.941 3.96606 238.127 3.96606H236.697Z" fill="white"/>
<path d="M225.889 16.264C223.425 16.264 221.203 15.12 221.225 12.392L223.029 12.216C223.007 13.756 224.129 14.702 225.845 14.702C227.649 14.702 228.551 14.086 228.551 12.92C228.551 11.666 226.527 11.512 225.009 11.116C223.227 10.654 221.467 10.126 221.467 7.94796C221.467 5.65996 223.579 4.73596 225.537 4.73596C227.869 4.73596 229.893 5.65996 230.135 8.34396L228.287 8.62996C228.243 7.11196 227.253 6.29796 225.515 6.29796C224.437 6.29796 223.315 6.80396 223.315 7.81596C223.315 8.82796 224.635 9.11396 225.955 9.39996C228.155 9.86196 230.421 10.236 230.421 12.81C230.421 15.494 228.111 16.264 225.889 16.264Z" fill="white"/>
<path d="M218.985 6.91396C219.645 7.96996 219.997 9.53196 219.909 11.094H211.571C211.615 13.514 212.627 14.68 214.695 14.68C216.565 14.68 217.577 13.888 217.841 12.216L219.755 12.37C219.271 14.944 217.511 16.264 214.717 16.264C213.023 16.264 211.703 15.758 210.757 14.658C209.833 13.624 209.415 12.194 209.415 10.478C209.415 8.84996 209.877 7.41996 210.801 6.38596C211.769 5.28596 213.111 4.73596 214.695 4.73596C216.433 4.73596 218.083 5.48396 218.985 6.91396ZM214.717 6.34196C213.485 6.34196 212.561 6.80396 212.121 7.52996C211.725 8.18996 211.593 8.93796 211.593 9.48796H217.885C217.863 8.89396 217.643 8.05796 217.291 7.52996C216.719 6.69396 215.905 6.34196 214.717 6.34196Z" fill="white"/>
<path d="M207.376 2.93198H205.396V0.599976H207.376V2.93198ZM207.376 16H205.396V4.99998H207.376V16Z" fill="white"/>
<path d="M203.25 4.75796C203.426 4.73596 203.844 4.73596 203.998 4.73596L203.954 6.60596C203.822 6.58396 203.646 6.58396 203.448 6.58396C201.358 6.58396 199.84 7.24396 199.84 10.786V16H197.86V4.99996H199.84V6.93596C200.148 5.87996 201.446 4.88996 203.25 4.75796Z" fill="white"/>
<path d="M194.916 6.91396C195.576 7.96996 195.928 9.53196 195.84 11.094H187.502C187.546 13.514 188.558 14.68 190.626 14.68C192.496 14.68 193.508 13.888 193.772 12.216L195.686 12.37C195.202 14.944 193.442 16.264 190.648 16.264C188.954 16.264 187.634 15.758 186.688 14.658C185.764 13.624 185.346 12.194 185.346 10.478C185.346 8.84996 185.808 7.41996 186.732 6.38596C187.7 5.28596 189.042 4.73596 190.626 4.73596C192.364 4.73596 194.014 5.48396 194.916 6.91396ZM190.648 6.34196C189.416 6.34196 188.492 6.80396 188.052 7.52996C187.656 8.18996 187.524 8.93796 187.524 9.48796H193.816C193.794 8.89396 193.574 8.05796 193.222 7.52996C192.65 6.69396 191.836 6.34196 190.648 6.34196Z" fill="white"/>
<path d="M177.807 16.2641C174.419 16.2641 171.449 14.5701 171.449 10.9841L173.561 10.7641C173.561 13.2281 175.365 14.5921 177.741 14.5921C180.007 14.5921 181.943 13.9101 181.943 11.6661C181.943 9.53206 179.215 9.57606 176.905 9.02606C174.507 8.45406 171.867 7.61806 171.867 4.67006C171.867 1.52406 174.815 0.33606 177.323 0.33606C180.513 0.33606 183.131 1.59006 183.461 5.24206L181.393 5.61606C181.349 3.30606 179.809 1.98606 177.279 1.98606C175.783 1.98606 173.913 2.77806 173.913 4.58206C173.913 6.32006 176.245 6.87006 178.335 7.20006C181.393 7.68406 184.011 8.23406 184.011 11.5121C184.011 15.2521 180.777 16.2641 177.807 16.2641Z" fill="white"/>
<path d="M164.031 5.96796C164.867 6.86996 164.889 8.29996 164.889 9.46596V16H162.843V9.57596C162.843 8.56396 162.865 7.66196 162.183 7.02396C161.567 6.40796 160.841 6.38596 160.225 6.38596C159.257 6.38596 157.365 6.78196 157.365 9.92796V16H155.385V4.99996H157.365V6.67196C157.915 5.43996 158.993 4.73596 160.753 4.73596C162.205 4.73596 163.239 5.13196 164.031 5.96796Z" fill="white"/>
<path d="M147.876 16.264C144.444 16.264 142.376 14.086 142.376 10.5C142.376 7.15596 144.466 4.73596 147.876 4.73596C151.242 4.73596 153.354 7.17796 153.354 10.5C153.354 13.954 151.176 16.264 147.876 16.264ZM147.876 14.702C148.998 14.702 149.79 14.372 150.318 13.778C150.956 13.052 151.22 11.93 151.22 10.5C151.22 9.06996 150.956 7.92596 150.296 7.19996C149.768 6.62796 148.998 6.29796 147.876 6.29796C146.798 6.29796 146.006 6.58396 145.478 7.13396C144.774 7.85996 144.51 9.02596 144.51 10.5C144.51 11.974 144.774 13.14 145.478 13.866C146.006 14.416 146.776 14.702 147.876 14.702Z" fill="white"/>
<path d="M140.359 2.93198H138.379V0.599976H140.359V2.93198ZM140.359 16H138.379V4.99998H140.359V16Z" fill="white"/>
<path d="M135.417 16.11C133.371 16.11 132.469 15.318 132.469 13.536V6.65002H130.885V5.00002H132.469V1.94202H134.427V5.00002H136.671V6.65002H134.427V13.47C134.427 14.196 134.757 14.328 135.571 14.328C135.813 14.328 136.209 14.284 136.583 14.218L136.627 16C136.275 16.066 135.813 16.11 135.417 16.11Z" fill="white"/>
<path d="M130.309 14.372L130.353 16C129.935 16.066 129.561 16.088 129.121 16.088C127.911 16.088 127.251 15.516 127.141 14.372C126.525 15.626 125.315 16.264 123.445 16.264C121.597 16.264 119.749 15.252 119.749 13.096C119.749 10.72 121.751 10.06 123.489 9.72996L127.119 9.02596C127.119 8.03596 127.075 7.48596 126.745 7.02396C126.437 6.58396 125.711 6.29796 124.743 6.29796C122.829 6.29796 122.059 7.00196 122.059 8.67396L120.123 8.40996C120.167 7.08996 120.629 6.12196 121.487 5.54996C122.279 5.02196 123.445 4.73596 124.853 4.73596C127.625 4.73596 129.033 5.96796 129.033 8.36596V13.624C129.033 14.196 129.033 14.46 129.671 14.46C129.847 14.46 130.023 14.438 130.309 14.372ZM127.119 11.842V10.5L123.797 11.226C122.631 11.49 121.773 11.82 121.773 13.074C121.773 14.108 122.675 14.68 123.753 14.68C126.151 14.68 127.119 13.426 127.119 11.842Z" fill="white"/>
<path d="M113.649 16.264C110.283 16.264 108.193 14.108 108.193 10.5C108.193 7.11196 110.283 4.73596 113.649 4.73596C116.443 4.73596 118.027 6.40796 118.467 8.49796L116.619 8.84996C116.289 7.57396 115.629 6.31996 113.649 6.31996C112.395 6.31996 111.603 6.69396 111.097 7.35396C110.547 8.10196 110.371 9.20196 110.371 10.5C110.371 12.986 110.987 14.68 113.649 14.68C115.343 14.68 116.223 14.02 116.641 12.436L118.511 12.634C118.115 14.856 116.201 16.264 113.649 16.264Z" fill="white"/>
<path d="M104.199 11.182V5H106.179V16H104.199V14.35C103.605 15.604 102.373 16.264 100.811 16.264C99.3808 16.264 98.3468 15.868 97.5548 15.032C96.6968 14.13 96.6748 12.744 96.6748 11.578V5H98.7208V11.468C98.7208 12.48 98.6988 13.338 99.3588 13.976C99.9968 14.592 100.723 14.614 101.361 14.614C102.351 14.614 104.199 14.372 104.199 11.182Z" fill="white"/>
<path d="M92.119 6.42998V0.599976H94.099V16H92.119V14.394C91.305 15.648 90.117 16.264 88.643 16.264C85.717 16.264 83.583 14.086 83.583 10.5C83.583 7.02398 85.607 4.73598 88.577 4.73598C90.117 4.73598 91.283 5.26398 92.119 6.42998ZM91.151 13.91C91.833 13.228 92.185 12.084 92.185 10.522C92.185 8.47598 91.723 6.31998 89.039 6.31998C87.917 6.31998 87.125 6.64998 86.619 7.24398C86.003 7.96998 85.761 9.06998 85.761 10.5C85.761 13.074 86.421 14.702 88.995 14.702C89.919 14.702 90.623 14.438 91.151 13.91Z" fill="white"/>
<path d="M82.1911 16H72.2471V0.599976H82.1911V2.38198H74.2271V7.33198H81.3771V9.11398H74.2271V14.218H82.1911V16Z" fill="white"/>
<path d="M63.7495 5.96796C64.5855 6.86996 64.6075 8.29996 64.6075 9.46596V16H62.5615V9.57596C62.5615 8.56396 62.5835 7.66196 61.9015 7.02396C61.2855 6.40796 60.5595 6.38596 59.9435 6.38596C58.9755 6.38596 57.0835 6.78196 57.0835 9.92796V16H55.1035V4.99996H57.0835V6.67196C57.6335 5.43996 58.7115 4.73596 60.4715 4.73596C61.9235 4.73596 62.9575 5.13196 63.7495 5.96796Z" fill="white"/>
<path d="M50.4378 6.53996V4.99996H52.4178V15.758C52.4178 18.706 50.3718 20.51 47.1378 20.51C44.9598 20.51 42.5618 19.564 42.4518 16.792L44.3438 16.66C44.4318 18.486 45.5978 18.97 47.3578 18.97C49.1398 18.97 50.4378 17.892 50.4378 15.89V14.02C49.6238 15.296 48.4798 15.912 46.9618 15.912C43.9258 15.912 41.9238 13.646 41.9238 10.214C41.9238 6.95796 43.9478 4.73596 46.8958 4.73596C48.5458 4.73596 49.6678 5.37396 50.4378 6.53996ZM49.5358 13.426C50.2618 12.634 50.5258 11.402 50.5258 10.214C50.5258 7.61796 49.3818 6.31996 47.3138 6.31996C46.1918 6.31996 45.4218 6.62796 44.9158 7.22196C44.2998 7.88196 44.0798 8.91596 44.0798 10.214C44.0798 12.788 44.7398 14.328 47.2698 14.328C48.3038 14.328 49.0298 13.976 49.5358 13.426Z" fill="white"/>
<path d="M39.8853 2.93198H37.9053V0.599976H39.8853V2.93198ZM39.8853 16H37.9053V4.99998H39.8853V16Z" fill="white"/>
<path d="M31.3644 16.264C28.9004 16.264 26.6784 15.12 26.7004 12.392L28.5044 12.216C28.4824 13.756 29.6044 14.702 31.3204 14.702C33.1244 14.702 34.0264 14.086 34.0264 12.92C34.0264 11.666 32.0024 11.512 30.4844 11.116C28.7024 10.654 26.9424 10.126 26.9424 7.94796C26.9424 5.65996 29.0544 4.73596 31.0124 4.73596C33.3444 4.73596 35.3684 5.65996 35.6104 8.34396L33.7624 8.62996C33.7184 7.11196 32.7284 6.29796 30.9904 6.29796C29.9124 6.29796 28.7904 6.80396 28.7904 7.81596C28.7904 8.82796 30.1104 9.11396 31.4304 9.39996C33.6304 9.86196 35.8964 10.236 35.8964 12.81C35.8964 15.494 33.5864 16.264 31.3644 16.264Z" fill="white"/>
<path d="M24.4606 6.91396C25.1206 7.96996 25.4726 9.53196 25.3846 11.094H17.0466C17.0906 13.514 18.1026 14.68 20.1706 14.68C22.0406 14.68 23.0526 13.888 23.3166 12.216L25.2306 12.37C24.7466 14.944 22.9866 16.264 20.1926 16.264C18.4986 16.264 17.1786 15.758 16.2326 14.658C15.3086 13.624 14.8906 12.194 14.8906 10.478C14.8906 8.84996 15.3526 7.41996 16.2766 6.38596C17.2446 5.28596 18.5866 4.73596 20.1706 4.73596C21.9086 4.73596 23.5586 5.48396 24.4606 6.91396ZM20.1926 6.34196C18.9606 6.34196 18.0366 6.80396 17.5966 7.52996C17.2006 8.18996 17.0686 8.93796 17.0686 9.48796H23.3606C23.3386 8.89396 23.1186 8.05796 22.7666 7.52996C22.1946 6.69396 21.3806 6.34196 20.1926 6.34196Z" fill="white"/>
<path d="M6.06217 16H0.826172V0.599976H6.06217C10.7262 0.599976 13.3662 3.67998 13.3662 8.29998C13.3662 13.118 10.6382 16 6.06217 16ZM2.80617 2.31598V14.284H5.84217C7.84417 14.284 9.31817 13.69 10.0222 12.656C10.7922 11.556 11.1222 10.302 11.1222 8.29998C11.1222 6.27598 10.7922 5.06598 10.0222 3.96598C9.27417 2.88798 7.75617 2.31598 5.84217 2.31598H2.80617Z" fill="white"/>
</svg>
