<svg width="234" height="45" viewBox="0 0 234 45" fill="none" xmlns="http://www.w3.org/2000/svg">
<path d="M0.408203 41.5215H233.194V44.1001H0.408203V41.5215Z" fill="#F2F2F2"/>
<path d="M209.575 36.3643H204.521L195.908 10.5786H200.911L204.933 24.3481C205.088 24.8639 206.171 28.7833 206.996 31.9291C207.563 29.4021 208.44 25.5859 208.749 24.3481L212.205 10.5786H216.537L219.94 24.3481C220.353 26.05 221.075 29.299 221.642 31.9291C222.416 28.938 223.086 26.411 223.705 24.3481L227.831 10.5786H232.833L224.221 36.3643H219.218L215.763 23.0589C215.505 22.079 214.835 18.8816 214.319 16.303C213.855 18.7269 213.339 21.357 212.927 23.0589L209.575 36.3643Z" fill="#F2F2F2"/>
<path d="M182.167 36.9832C174.122 36.9832 169.274 31.8776 169.274 23.4715C169.274 15.6327 174.174 9.95984 182.167 9.95984C190.058 9.95984 195.008 15.6843 195.008 23.4715C195.008 31.5682 189.903 36.9832 182.167 36.9832ZM182.167 33.3216C184.797 33.3216 186.654 32.5481 187.892 31.1556C189.387 29.4538 190.006 26.8237 190.006 23.4715C190.006 20.1194 189.387 17.4377 187.84 15.7358C186.602 14.395 184.797 13.6214 182.167 13.6214C179.64 13.6214 177.784 14.2918 176.546 15.5811C174.896 17.283 174.277 20.0162 174.277 23.4715C174.277 26.9268 174.896 29.6601 176.546 31.3619C177.784 32.6512 179.589 33.3216 182.167 33.3216Z" fill="#F2F2F2"/>
<path d="M141.613 36.3641H137.023V0.26416H142.026L155.589 22.0788C157.033 24.3995 158.632 27.3907 160.127 30.2271H160.179C160.024 27.2359 159.921 22.543 159.921 21.0474V0.26416H164.511V36.3641H159.251L145.842 14.5494C145.017 13.2086 142.799 9.13442 141.407 6.40114H141.355C141.51 9.85642 141.613 14.601 141.613 15.5808V36.3641Z" fill="#F2F2F2"/>
<path d="M119.888 36.3641H115.246V0.26416H119.888V36.3641Z" fill="#F2F2F2"/>
<path d="M109.483 36.3641H104.842V0.26416H109.483V36.3641Z" fill="#F2F2F2"/>
<path d="M87.7581 36.9832C79.7129 36.9832 74.8652 31.8776 74.8652 23.4715C74.8652 15.6327 79.7645 9.95984 87.7581 9.95984C95.6485 9.95984 100.599 15.6843 100.599 23.4715C100.599 31.5682 95.4937 36.9832 87.7581 36.9832ZM87.7581 33.3216C90.3882 33.3216 92.2448 32.5481 93.4825 31.1556C94.978 29.4538 95.5969 26.8237 95.5969 23.4715C95.5969 20.1194 94.978 17.4377 93.4309 15.7358C92.1932 14.395 90.3882 13.6214 87.7581 13.6214C85.2311 13.6214 83.3745 14.2918 82.1368 15.5811C80.4865 17.283 79.8676 20.0162 79.8676 23.4715C79.8676 26.9268 80.4865 29.6601 82.1368 31.3619C83.3745 32.6512 85.1795 33.3216 87.7581 33.3216Z" fill="#F2F2F2"/>
<path d="M72.9065 10.0114C73.319 9.95984 74.2989 9.95984 74.6599 9.95984L74.5567 14.3434C74.2473 14.2918 73.8347 14.2918 73.3706 14.2918C68.4713 14.2918 64.9129 15.839 64.9129 24.1419V36.3643H60.2715V10.5787H64.9129V15.117C65.6349 12.6415 68.6776 10.3208 72.9065 10.0114Z" fill="#F2F2F2"/>
<path d="M52.7607 12.8478C54.7204 14.9623 54.772 18.3144 54.772 21.0477V36.3643H49.9758V21.3055C49.9758 18.9332 50.0274 16.8188 48.4287 15.3233C46.9847 13.8793 45.2828 13.8277 43.8388 13.8277C41.5697 13.8277 37.1346 14.756 37.1346 22.1307V36.3643H32.4932V10.5787H37.1346V14.4981C38.4239 11.6101 40.9509 9.95984 45.0766 9.95984C48.4803 9.95984 50.9041 10.8881 52.7607 12.8478Z" fill="#F2F2F2"/>
<path d="M27.9997 36.3641H4.68945V0.26416H27.9997V4.44144H9.33087V16.045H26.0915V20.2222H9.33087V32.1868H27.9997V36.3641Z" fill="#F2F2F2"/>
</svg>
