<svg width="35" height="13" viewBox="0 0 35 13" fill="none" xmlns="http://www.w3.org/2000/svg">
<path d="M0 11.4H34.3476V12.1H0V11.4Z" fill="#F2F2F2"/>
<path d="M33.256 4.21803C33.676 4.89003 33.9 5.88403 33.844 6.87803H28.538C28.566 8.41803 29.21 9.16003 30.526 9.16003C31.716 9.16003 32.36 8.65603 32.528 7.59203L33.746 7.69003C33.438 9.32803 32.318 10.168 30.54 10.168C29.462 10.168 28.622 9.84603 28.02 9.14603C27.432 8.48803 27.166 7.57803 27.166 6.48603C27.166 5.45003 27.46 4.54003 28.048 3.88203C28.664 3.18203 29.518 2.83203 30.526 2.83203C31.632 2.83203 32.682 3.30803 33.256 4.21803ZM30.54 3.85403C29.756 3.85403 29.168 4.14803 28.888 4.61003C28.636 5.03003 28.552 5.50603 28.552 5.85603H32.556C32.542 5.47803 32.402 4.94603 32.178 4.61003C31.814 4.07803 31.296 3.85403 30.54 3.85403Z" fill="#F2F2F2"/>
<path d="M23.5492 10.168C21.9812 10.168 20.5672 9.44003 20.5812 7.70403L21.7292 7.59203C21.7152 8.57203 22.4292 9.17403 23.5212 9.17403C24.6692 9.17403 25.2432 8.78203 25.2432 8.04003C25.2432 7.24203 23.9552 7.14403 22.9892 6.89203C21.8552 6.59803 20.7352 6.26203 20.7352 4.87603C20.7352 3.42003 22.0792 2.83203 23.3252 2.83203C24.8092 2.83203 26.0972 3.42003 26.2512 5.12803L25.0752 5.31003C25.0472 4.34403 24.4172 3.82603 23.3112 3.82603C22.6252 3.82603 21.9112 4.14803 21.9112 4.79203C21.9112 5.43603 22.7512 5.61803 23.5912 5.80003C24.9912 6.09403 26.4332 6.33203 26.4332 7.97003C26.4332 9.67803 24.9632 10.168 23.5492 10.168Z" fill="#F2F2F2"/>
<path d="M16.3916 10.168C14.2076 10.168 12.8916 8.78203 12.8916 6.50003C12.8916 4.37203 14.2216 2.83203 16.3916 2.83203C18.5336 2.83203 19.8776 4.38603 19.8776 6.50003C19.8776 8.69803 18.4916 10.168 16.3916 10.168ZM16.3916 9.17403C17.1056 9.17403 17.6096 8.96403 17.9456 8.58603C18.3516 8.12403 18.5196 7.41003 18.5196 6.50003C18.5196 5.59003 18.3516 4.86203 17.9316 4.40003C17.5956 4.03603 17.1056 3.82603 16.3916 3.82603C15.7056 3.82603 15.2016 4.00803 14.8656 4.35803C14.4176 4.82003 14.2496 5.56203 14.2496 6.50003C14.2496 7.43803 14.4176 8.18003 14.8656 8.64203C15.2016 8.99203 15.6916 9.17403 16.3916 9.17403Z" fill="#F2F2F2"/>
<path d="M11.7473 9.99995H10.4873V0.199951H11.7473V9.99995Z" fill="#F2F2F2"/>
<path d="M5.23589 10.168C2.26789 10.168 0.587891 8.36198 0.587891 5.09998C0.587891 2.13198 2.22589 0.0319824 5.23589 0.0319824C7.23789 0.0319824 8.93189 1.05398 9.47789 3.09798L8.09189 3.36398C7.79789 2.18798 6.84589 1.12398 5.26389 1.12398C4.14389 1.12398 3.24789 1.48798 2.71589 2.22998C2.23989 2.90198 2.01589 3.83998 2.01589 5.09998C2.01589 6.37398 2.23989 7.29798 2.71589 7.98398C3.21989 8.69798 4.11589 9.07598 5.23589 9.07598C6.83189 9.07598 7.72789 8.12398 8.11989 7.00398L9.56189 7.38198C8.77789 9.17398 7.29389 10.168 5.23589 10.168Z" fill="#F2F2F2"/>
</svg>
