<svg width="331.1" height="89" viewBox="0 0 331.1 89" xmlns="http://www.w3.org/2000/svg"><g id="svgGroup" stroke-linecap="round" fill-rule="nonzero" font-size="9pt" stroke="#075c42" stroke-width="0.05mm" fill="#143f42" style="stroke:#075c42;stroke-width:0.05mm;fill:#143f42"><path d="M 78.525 63.1 L 78 61.6 L 76.8 61.6 L 76.1 59.6 L 72.2 59.6 L 71.8 58.6 L 71.6 58.6 L 71 57.1 L 72 57.1 L 71.8 56.6 L 69.6 56.6 L 68.9 54.6 L 72.4 54.6 L 72 53.6 L 68.9 53.6 L 68.7 53.1 L 69.2 53.1 L 68.5 51.1 L 68.2 51.1 L 67.6 49.6 L 68.1 49.6 L 67.4 47.6 L 68.7 47.6 L 68.2 46.1 L 68.1 46.1 L 67.9 45.6 L 73 45.6 L 72.8 45.1 L 72.5 45.1 L 72 43.6 L 66.3 43.6 L 65.7 41.6 L 67.5 41.6 L 67.3 41.1 L 67.8 41.1 L 67.7 40.6 L 65.7 40.6 L 65 38.6 L 67.9 38.6 L 67.5 37.6 L 65.9 37.6 L 65.2 35.6 L 65.5 35.6 L 65 34.1 L 63.9 34.1 L 63.2 32.1 L 60 32.1 L 59.8 31.6 L 63.1 31.6 L 62.7 30.6 L 62.6 30.6 L 62.1 29.1 L 58.5 29.1 L 58.4 28.6 L 60.8 28.6 L 60.1 26.6 L 62.1 26.6 L 61.6 25.1 L 62.4 25.1 L 62.1 24.1 L 46.2 24.1 L 45.8 23.1 L 49.7 23.1 L 49 21.1 L 47.8 21.1 L 47.3 19.6 L 51.2 19.6 L 50.5 17.6 L 60.5 17.6 L 60 16.1 L 55.2 16.1 L 54.8 15.1 L 58.5 15.1 L 57.8 13.1 L 54.5 13.1 L 54 11.6 L 56.1 11.6 L 55.4 9.6 L 55.1 9.6 L 54.4 7.6 L 51.6 7.6 L 51.4 7.1 L 60.9 7.1 L 60.2 5.1 L 59.9 5.1 L 59.8 4.6 L 56.3 4.6 L 55.8 3.3 A 1.064 1.064 0 0 0 55.781 3.104 Q 55.738 2.876 55.6 2.6 L 56.6 2.6 L 56 1.6 L 55.6 1.6 Q 55.1 0.9 54.2 0.45 Q 53.666 0.183 52.99 0.074 A 6.245 6.245 0 0 0 52 0 L 30.3 0 A 7.194 7.194 0 0 0 30.06 0.004 Q 28.916 0.042 28.1 0.45 A 4.462 4.462 0 0 0 27.529 0.789 A 3.427 3.427 0 0 0 26.7 1.6 L 27 1.6 L 26.4 2.6 L 25.4 2.6 L 25.1 3.3 L 24.7 4.6 L 28.2 4.6 L 28 5.1 L 28.3 5.1 L 27.6 7.1 L 18 7.1 L 17.9 7.6 L 20.7 7.6 L 20 9.6 L 20.3 9.6 L 19.6 11.6 L 17.5 11.6 L 17 13.1 L 20.3 13.1 L 19.6 15.1 L 15.9 15.1 L 15.5 16.1 L 20.3 16.1 L 19.8 17.6 L 9.8 17.6 L 9.1 19.6 L 5.2 19.6 L 4.6 21.1 L 5.9 21.1 L 5.2 23.1 L 6.5 23.1 L 6.2 24.1 L 13.1 24.1 L 12.8 25.1 L 13.9 25.1 L 13.4 26.6 L 15.6 26.6 L 14.9 28.6 L 13.1 28.6 L 13 29.1 L 14 29.1 L 13.5 30.6 L 11.3 30.6 L 10.9 31.6 L 13.2 31.6 L 13 32.1 L 13.3 32.1 L 12.6 34.1 L 11.5 34.1 L 11 35.6 L 11.9 35.6 L 11.2 37.6 L 9.7 37.6 L 9.3 38.6 L 13.2 38.6 L 12.5 40.6 L 9.3 40.6 L 9.1 41.1 L 10.2 41.1 L 10 41.6 L 8.2 41.6 L 7.5 43.6 L 13.1 43.6 L 12.6 45.1 L 12.9 45.1 L 12.7 45.6 L 7.7 45.6 L 7.5 46.1 L 7 47.6 L 5.7 47.6 L 5 49.6 L 4.6 49.6 L 4.1 51.1 L 4.4 51.1 L 3.7 53.1 L 3.2 53.1 L 3 53.6 L 6.1 53.6 L 5.8 54.6 L 2.4 54.6 L 1.7 56.6 L 3.9 56.6 L 3.7 57.1 L 2.7 57.1 L 2.2 58.6 L 2.5 58.6 L 2.1 59.6 L 6 59.6 L 5.3 61.6 L 4.2 61.6 L 3.5 63.6 L 2.4 63.6 L 2 64.6 L 1.4 64.6 L 0.7 66.6 L 0.8 66.6 L 0.7 67.1 Q 0.638 67.225 0.614 67.389 A 1.494 1.494 0 0 0 0.6 67.6 L 0 67.6 L 0 67.8 Q 0 68.9 1 69.6 L 4 69.6 Q 4.278 69.878 4.75 69.963 A 2.55 2.55 0 0 0 5.2 70 L 23.7 70 A 6.126 6.126 0 0 0 23.905 69.997 Q 24.182 69.987 24.424 69.953 A 3.279 3.279 0 0 0 24.9 69.85 Q 25.166 69.77 25.403 69.705 A 16.783 16.783 0 0 1 25.8 69.6 L 22.8 69.6 A 4.838 4.838 0 0 0 22.976 69.508 Q 23.28 69.34 23.519 69.148 A 2.617 2.617 0 0 0 24 68.65 Q 24.203 68.371 24.355 68.104 A 4.11 4.11 0 0 0 24.6 67.6 L 25.1 67.6 L 25.2 67.5 L 25.3 67.1 L 25.5 66.6 L 25.4 66.6 L 26.1 64.6 L 26.7 64.6 L 27.1 63.6 L 28.2 63.6 L 28.9 61.6 L 30.1 61.6 L 30.3 60.9 L 51.8 60.9 L 52.1 61.6 L 53.3 61.6 L 54 63.6 L 49.9 63.6 L 50.2 64.6 L 52.1 64.6 L 52.8 66.6 L 51.1 66.6 L 51.3 67.1 L 51.5 67.5 L 51.5 67.6 L 51 67.6 Q 51.113 67.881 51.289 68.178 A 5.994 5.994 0 0 0 51.6 68.65 A 2.344 2.344 0 0 0 51.734 68.817 Q 52.124 69.262 52.8 69.6 A 8.696 8.696 0 0 1 52.94 69.629 A 7.784 7.784 0 0 1 53.75 69.85 Q 54.2 70 54.9 70 L 73.4 70 Q 74.2 70 74.7 69.6 L 74.6 69.6 A 1.912 1.912 0 0 0 75.394 68.554 A 2.528 2.528 0 0 0 75.5 67.8 L 75.5 67.6 L 76.1 67.6 A 0.519 0.519 0 0 0 76.094 67.524 Q 76.088 67.484 76.077 67.439 A 1.304 1.304 0 0 0 76.05 67.35 Q 76 67.2 76 67.1 L 75.8 66.6 L 77.5 66.6 L 76.8 64.6 L 74.9 64.6 L 74.6 63.6 L 78.5 63.6 M 35.5 40.6 L 36.1 38.6 L 32.2 38.6 L 32.5 37.6 L 34 37.6 L 34.6 35.6 L 33.7 35.6 L 34.2 34.1 L 35.3 34.1 L 35.9 32.1 L 35.6 32.1 L 35.7 31.6 L 33.5 31.6 L 33.8 30.6 L 36 30.6 L 36.4 29.1 L 39.6 29.1 L 40.1 30.6 L 40.2 30.6 L 40.5 31.6 L 37.2 31.6 L 37.4 32.1 L 40.6 32.1 L 41.2 34.1 L 42.3 34.1 L 42.7 35.6 L 42.4 35.6 L 43 37.6 L 44.7 37.6 L 45 38.6 L 42.1 38.6 L 42.7 40.6 L 44.7 40.6 L 44.8 41.1 L 44.3 41.1 L 44.4 41.4 L 33.1 41.4 L 33.2 41.1 L 32.1 41.1 L 32.3 40.6 L 35.5 40.6 Z M 35.3 24.1 L 39.8 24.1 L 40.1 25.1 L 39.3 25.1 L 39.8 26.6 L 35.7 26.6 L 36.2 25.1 L 35 25.1 L 35.3 24.1 Z M 37.3 28.6 L 37.8 26.9 L 38.3 28.6 L 37.3 28.6 Z" id="0" vector-effect="non-scaling-stroke"/><path d="M 126.1 22.1 L 126.1 21.6 L 126.2 21.6 L 126.2 20.7 A 2.554 2.554 0 0 0 126.199 20.629 Q 126.192 20.38 126.137 20.106 A 4.296 4.296 0 0 0 126 19.6 L 126.2 19.6 Q 125.5 18 123.7 18 L 118.9 18 A 23.696 23.696 0 0 0 118.218 18.01 A 20.995 20.995 0 0 0 114.7 18.4 A 21.241 21.241 0 0 0 114.575 18.425 A 22.86 22.86 0 0 0 110.7 19.6 L 110.5 19.6 A 17.232 17.232 0 0 0 108.758 20.358 A 22.053 22.053 0 0 0 106.6 21.6 L 106.4 21.6 A 0.734 0.734 0 0 1 106.318 21.67 Q 106.273 21.704 106.215 21.738 A 1.844 1.844 0 0 1 106.1 21.8 A 1.142 1.142 0 0 0 106.072 21.815 Q 105.886 21.914 105.7 22.1 L 105.5 22.1 L 105.1 22.4 L 105.1 22.1 L 102 22.1 L 102 21.6 L 103 21.6 L 103 20.7 A 2.554 2.554 0 0 0 102.999 20.629 Q 102.992 20.38 102.937 20.106 A 4.296 4.296 0 0 0 102.8 19.6 L 102.6 19.6 Q 102.138 18.544 101.24 18.185 A 2.781 2.781 0 0 0 100.2 18 L 82.7 18 Q 81.518 18 80.81 18.69 A 2.845 2.845 0 0 0 80.2 19.6 L 80.3 19.6 A 4.943 4.943 0 0 0 80.276 19.675 Q 80.1 20.231 80.1 20.7 L 80.1 21.6 L 79.1 21.6 L 79.1 22.1 L 82.2 22.1 L 82.2 24.1 L 79 24.1 L 79 25.6 L 82.8 25.6 L 82.8 27.6 L 82.6 27.6 L 82.6 29.6 L 79.1 29.6 L 79.1 31.1 L 80 31.1 L 80 33.1 L 79.2 33.1 L 79.2 35.1 L 77.4 35.1 L 77.4 35.6 L 71.1 35.6 L 71.1 37.1 L 73.3 37.1 L 73.3 39.1 L 77.3 39.1 L 77.3 39.6 L 80.6 39.6 L 80.6 40.1 L 82.4 40.1 L 82.4 40.6 L 82.9 40.6 L 82.9 42.1 L 79.9 42.1 L 79.9 42.6 L 78.9 42.6 L 78.9 43.1 L 80.1 43.1 L 80.1 44.1 L 80.7 44.1 L 80.7 45.6 L 79.3 45.6 L 79.3 46.6 L 80.7 46.6 L 80.7 48.1 L 82.2 48.1 L 82.2 50.1 L 80 50.1 L 80 50.6 L 78.4 50.6 L 78.4 51.1 L 84.4 51.1 L 84.4 52.6 L 81.4 52.6 L 81.4 53.6 L 82.4 53.6 L 82.4 54.6 L 80.1 54.6 L 80.1 56.6 L 78.8 56.6 L 78.8 57.1 L 77.5 57.1 L 77.5 58.6 L 80.9 58.6 L 80.9 60.1 L 79.1 60.1 L 79.1 61.6 L 80.9 61.6 L 80.9 62.1 L 80.7 62.1 L 80.7 63.1 L 78.525 63.1 M 78.5 63.6 L 78.5 64.1 L 80.1 64.1 L 80.1 66.1 L 80.5 66.1 L 80.5 67.6 L 80.1 67.6 A 3.581 3.581 0 0 0 80.185 68.018 A 2.434 2.434 0 0 0 81.4 69.6 L 80.5 69.6 A 1.565 1.565 0 0 0 80.829 69.801 Q 81.265 70 81.9 70 L 100.9 70 A 3.593 3.593 0 0 0 101.211 69.987 Q 101.89 69.928 102.3 69.6 L 103.2 69.6 A 2.375 2.375 0 0 0 104.244 68.494 A 3.167 3.167 0 0 0 104.5 67.6 L 104.9 67.6 L 104.9 66.1 L 104.5 66.1 L 104.5 64.1 L 102.9 64.1 L 102.9 63.1 L 105.1 63.1 L 105.1 62.1 L 105.3 62.1 L 105.3 61.6 L 103.5 61.6 L 103.5 60.1 L 105.3 60.1 L 105.3 58.6 L 101.9 58.6 L 101.9 57.1 L 103.2 57.1 L 103.2 56.6 L 104.5 56.6 L 104.5 54.6 L 106.8 54.6 L 106.8 53.6 L 105.8 53.6 L 105.8 52.6 L 108.8 52.6 L 108.8 51.1 L 102.8 51.1 L 102.8 50.6 L 104.4 50.6 L 104.4 50.1 L 106.6 50.1 L 106.6 48.1 L 105.1 48.1 L 105.1 46.6 L 103.7 46.6 L 103.7 45.6 L 105.1 45.6 L 105.1 44.1 L 104.5 44.1 Q 104.6 43.8 104.6 43.55 A 1.169 1.169 0 0 1 104.606 43.436 A 0.952 0.952 0 0 1 104.7 43.1 L 103.5 43.1 Q 103.5 42.963 103.524 42.872 A 0.373 0.373 0 0 1 103.55 42.8 Q 103.6 42.7 103.6 42.6 L 104.6 42.6 Q 104.6 42.519 104.732 42.24 A 7.069 7.069 0 0 1 104.8 42.1 L 107.8 42.1 A 4.435 4.435 0 0 1 107.957 41.695 A 3.612 3.612 0 0 1 108.7 40.6 L 108.2 40.6 L 108.8 40.1 L 106.9 40.1 A 10.011 10.011 0 0 1 107.177 39.921 Q 107.574 39.675 107.8 39.6 L 104.5 39.6 A 9.89 9.89 0 0 1 104.639 39.546 Q 104.844 39.467 105.031 39.407 A 5.642 5.642 0 0 1 105.4 39.3 Q 105.8 39.2 106.3 39.1 L 102.3 39.1 A 1.865 1.865 0 0 1 102.512 39.043 A 2.157 2.157 0 0 1 102.95 39 L 103.7 39 L 116.6 39 Q 118.078 39 118.763 38.059 A 2.838 2.838 0 0 0 119.2 37.1 L 116.9 37.1 Q 117 36.9 117.05 36.7 Q 117.1 36.5 117.1 36.3 L 117.1 35.6 L 121.1 35.6 M 123.4 35.6 L 123.4 35.1 L 125.2 35.1 L 125.2 33.1 L 126 33.1 L 126 31.1 L 125.1 31.1 L 125.1 29.6 L 128.6 29.6 L 128.6 27.6 L 128.8 27.6 L 128.8 25.933 M 128.65 25.6 L 125 25.6 L 125 24.1 L 125.9 24.1 L 125.9 22.6" id="1" vector-effect="non-scaling-stroke"/><path d="M 121.1 35.6 L 121.6 36.6 L 134.1 36.6 L 135 38.6 L 135.1 38.6 L 135.4 39.1 L 137.9 39.1 L 138.4 40.1 L 136.8 40.1 L 137.1 40.6 L 136 40.6 L 136.8 42.6 L 138.2 42.6 L 138.8 44.1 L 137.6 44.1 L 138.3 45.6 L 139 45.6 L 139.6 47.1 L 139.9 47.1 L 140.1 47.6 L 140 47.6 L 140.4 48.6 L 141 48.6 L 141.4 49.6 L 141 49.6 L 141.4 50.6 L 141.3 50.6 L 141.9 52.1 L 142.6 52.1 L 142.8 52.6 L 142.2 52.6 L 142.8 54.1 L 139.1 54.1 L 139.9 56.1 L 142.3 56.1 L 142.7 57.1 L 145.7 57.1 L 146.5 59.1 L 143.2 59.1 L 143.7 60.1 L 145.3 60.1 L 146.2 62.1 L 145.7 62.1 L 146.5 64.1 L 147.2 64.1 L 147.7 65.1 L 147.4 65.1 L 147.8 66.1 L 147.6 66.1 L 147.9 66.7 L 147.5 67.6 L 147.7 67.6 L 147.1 69.1 L 146.2 69.1 L 145.6 70.6 L 144.1 70.6 L 143.7 71.6 L 151 71.6 L 150.2 73.6 L 142.8 73.6 L 142 75.6 L 146 75.6 L 145.2 77.6 L 149.3 77.6 L 148.5 79.6 L 148.7 79.6 L 147.8 81.6 L 135.2 81.6 L 134.8 82.6 L 137.6 82.6 L 137.2 83.6 L 141.6 83.6 L 141.2 84.6 L 131.2 84.6 L 130.7 85.6 L 135.9 85.6 L 135.8 85.9 A 1.615 1.615 0 0 0 135.787 85.943 Q 135.741 86.094 135.719 86.269 A 2.717 2.717 0 0 0 135.7 86.6 L 135.7 86.9 A 1.947 1.947 0 0 0 136.072 88.061 A 2.624 2.624 0 0 0 136.6 88.6 L 132.5 88.6 A 1.18 1.18 0 0 0 132.913 88.861 Q 133.1 88.934 133.334 88.969 A 3.195 3.195 0 0 0 133.8 89 L 150.2 89 Q 151.1 89 151.9 88.6 L 156.1 88.6 Q 157.3 87.9 157.8 86.6 L 158.2 85.6 L 153 85.6 L 153.5 84.6 L 163.5 84.6 L 164 83.6 L 159.6 83.6 L 160 82.6 L 157.1 82.6 L 157.6 81.6 L 170.2 81.6 L 171 79.6 L 170.8 79.6 L 171.7 77.6 L 167.6 77.6 L 168.5 75.6 L 164.4 75.6 L 165.3 73.6 L 172.7 73.6 L 173.5 71.6 L 166.2 71.6 L 166.7 70.6 L 168.1 70.6 L 168.8 69.1 L 169.6 69.1 L 170.3 67.6 L 170 67.6 L 170.7 66.1 L 170.9 66.1 L 171.4 65.1 L 171.6 65.1 L 172 64.1 L 171.3 64.1 L 172.2 62.1 L 172.7 62.1 L 173.5 60.1 L 171.9 60.1 L 172.3 59.1 L 175.6 59.1 L 176.4 57.1 L 173.5 57.1 L 173.9 56.1 L 171.5 56.1 L 172.4 54.1 L 176.1 54.1 L 176.8 52.6 L 177.4 52.6 L 177.6 52.1 L 177 52.1 L 177.6 50.6 L 177.7 50.6 L 178.1 49.6 L 178.6 49.6 L 179 48.6 L 178.5 48.6 L 178.9 47.6 L 179 47.6 L 179.2 47.1 L 178.9 47.1 L 179.6 45.6 L 178.8 45.6 L 179.5 44.1 L 180.7 44.1 L 181.3 42.6 L 182.2 40.6 L 182.8 40.6 L 183 40.1 L 182.3 40.1 L 182.8 39.1 L 185.1 39.1 L 185.3 38.6 L 172.1 38.6 L 173 36.6 L 173.8 36.6 L 174.2 35.6 L 183.2 35.6 L 183.4 35.1 L 177.9 35.1 L 178.4 34.1 L 185.5 34.1 L 186.1 32.6 L 185.1 32.6 L 185.8 31.1 L 185.9 31.1 L 186.1 30.6 L 186.7 30.6 L 187.1 29.6 L 184.6 29.6 L 185 28.6 L 188.3 28.6 L 189.1 26.6 L 187 26.6 L 187.8 24.6 L 191.7 24.6 L 192.6 22.6 L 184.2 22.6 L 184.4 22.1 L 192.5 22.1 L 192.9 21.1 Q 192.964 20.847 192.987 20.514 A 5.962 5.962 0 0 0 193 20.1 L 189.7 20.1 A 1.762 1.762 0 0 0 189.413 19.137 A 2.505 2.505 0 0 0 189 18.65 A 2.932 2.932 0 0 0 188.951 18.605 A 2.272 2.272 0 0 0 187.4 18 L 170.7 18 A 4.932 4.932 0 0 0 170.486 18.005 Q 170.033 18.024 169.651 18.129 A 2.523 2.523 0 0 0 168.65 18.65 Q 167.9 19.3 167.4 20.1 L 170.7 20.1 A 0.703 0.703 0 0 1 170.697 20.166 Q 170.683 20.317 170.6 20.4 L 170.4 21.1 L 170 22.1 L 161.9 22.1 L 161.7 22.6 L 170.1 22.6 L 169.4 24.6 L 165.5 24.6 L 164.7 26.6 L 166.9 26.6 L 166.1 28.6 L 162.9 28.6 L 162.5 29.6 L 165 29.6 L 164.7 30.6 L 164.1 30.6 L 163.9 31.1 L 163.8 31.1 L 163.2 32.6 L 164.2 32.6 L 163.6 34.1 L 156.6 34.1 L 156.2 35.1 L 161.7 35.1 L 161.5 35.6 L 152.5 35.6 L 152.1 36.6 L 143.3 36.6 L 143 35.6 L 150.4 35.6 L 150.2 35.1 L 150.6 35.1 L 150.3 34.1 L 155.2 34.1 L 154.7 32.6 L 155.5 32.6 L 155 31.1 L 155.2 31.1 L 154.6 29.6 L 154.3 29.6 L 153.9 28.6 L 154.9 28.6 L 154.2 26.6 L 151.5 26.6 L 150.8 24.6 L 152.9 24.6 L 152.1 22.6 L 146.7 22.6 L 146.5 22.1 L 154.5 22.1 L 154.2 21.1 L 153.9 20.4 A 0.352 0.352 0 0 0 153.899 20.367 Q 153.892 20.291 153.85 20.25 A 0.148 0.148 0 0 1 153.823 20.211 Q 153.81 20.187 153.805 20.156 A 0.319 0.319 0 0 1 153.8 20.1 L 155.2 20.1 A 3.489 3.489 0 0 0 154.861 19.429 A 4.114 4.114 0 0 0 154.2 18.65 Q 153.708 18.193 152.87 18.057 A 4.826 4.826 0 0 0 152.1 18 L 135.2 18 A 3.104 3.104 0 0 0 134.851 18.019 Q 133.253 18.2 132.8 20.1 L 131.4 20.1 A 0.296 0.296 0 0 0 131.345 20.177 Q 131.3 20.266 131.3 20.4 Q 131.3 20.8 131.4 21.1 L 131.8 22.1 L 126.1 22.1 M 161.2 39.1 L 160.9 40.1 L 161.6 40.1 L 161.4 40.6 L 160.7 40.6 L 160 42.6 L 159.8 43.2 L 159.6 42.6 L 158.2 42.6 L 157.5 40.6 L 158.6 40.6 L 158.4 40.1 L 159.9 40.1 L 159.5 39.1 L 157 39.1 L 156.8 38.6 L 163.7 38.6 L 163.6 39.1 L 161.2 39.1 Z M 128.8 25.933 L 129.1 26.6 L 131.8 26.6 L 132.6 28.6 L 131.6 28.6 L 132.1 29.6 L 132.4 29.6 L 132.8 30.6 L 132.9 30.6 L 133.1 31.1 L 132.9 31.1 L 133.5 32.6 L 132.6 32.6 L 133.3 34.1 L 128.3 34.1 L 128.8 35.1 L 128.4 35.1 L 128.6 35.6 L 123.4 35.6 M 125.9 22.6 L 129.5 22.6 L 130.3 24.6 L 128.2 24.6 L 128.65 25.6" id="2" vector-effect="non-scaling-stroke"/><path d="M 257.7 29.6 L 249.8 29.6 L 248.9 27.6 L 250.5 27.6 Q 250.3 27.1 249.95 26.55 A 6.361 6.361 0 0 0 249.681 26.159 A 5.124 5.124 0 0 0 249.2 25.6 L 241.8 25.6 A 2.339 2.339 0 0 1 241.765 25.564 Q 241.67 25.465 241.575 25.343 A 4.019 4.019 0 0 1 241.4 25.1 A 4.572 4.572 0 0 0 241.372 25.058 Q 241.28 24.923 241.188 24.81 A 2.696 2.696 0 0 0 241 24.6 L 255.5 24.6 L 254 23.1 L 244.8 23.1 L 244.2 22.6 L 241.4 22.6 L 239.3 21.1 L 244 21.1 Q 243 20.5 241.95 20 Q 240.9 19.5 239.8 19.1 L 240.6 19.1 Q 234.9 17 226.7 17 A 52.268 52.268 0 0 0 223.325 17.105 A 40.842 40.842 0 0 0 219.35 17.55 A 37.591 37.591 0 0 0 216.543 18.117 A 29.319 29.319 0 0 0 213.3 19.1 L 212.6 19.1 Q 210.3 19.9 208.2 21.1 L 203.5 21.1 Q 202.9 21.5 202.3 21.85 A 10.061 10.061 0 0 0 202.079 21.983 A 8.877 8.877 0 0 0 201.2 22.6 L 204 22.6 L 203.4 23.1 L 212.6 23.1 Q 212.2 23.5 211.75 23.85 Q 211.3 24.2 210.9 24.6 L 196.4 24.6 L 195.5 25.6 L 203 25.6 L 202.2 26.6 A 10.126 10.126 0 0 0 202.006 26.85 A 8.784 8.784 0 0 0 201.5 27.6 L 199.8 27.6 A 10.011 10.011 0 0 0 199.486 28.163 A 8.412 8.412 0 0 0 198.9 29.6 L 207.8 29.6 A 8.576 8.576 0 0 0 207.795 29.611 Q 207.6 30.001 207.6 30.1 L 193.2 30.1 A 5.165 5.165 0 0 0 193.091 30.472 Q 193 30.831 193 31.1 L 199.4 31.1 A 1.684 1.684 0 0 1 199.398 31.179 Q 199.393 31.292 199.372 31.391 A 0.881 0.881 0 0 1 199.3 31.6 L 197.7 31.6 L 197.7 32 A 1.946 1.946 0 0 0 197.697 32.019 Q 197.605 32.608 197.9 33.1 L 198 33.1 A 1.766 1.766 0 0 0 199.274 34.122 A 3.156 3.156 0 0 0 200 34.2 L 217 34.2 A 4.967 4.967 0 0 0 217.365 34.187 A 3.712 3.712 0 0 0 219.8 33.1 L 219.7 33.1 A 26.262 26.262 0 0 1 219.892 32.91 Q 220.098 32.708 220.286 32.534 A 14.356 14.356 0 0 1 220.6 32.25 A 14.843 14.843 0 0 1 220.7 32.163 A 13.535 13.535 0 0 1 221.4 31.6 L 223.1 31.6 L 223.8 31.3 Q 224.2 31.5 224.3 31.6 L 226 31.6 A 2.367 2.367 0 0 1 226.441 32.205 A 2.592 2.592 0 0 1 226.7 33.1 A 1.865 1.865 0 0 1 226.757 33.312 A 2.157 2.157 0 0 1 226.8 33.75 L 226.8 34.6 L 221.1 34.6 L 221.1 35.1 L 230.7 35.1 L 230.7 35.6 L 225.6 35.6 L 225.6 36.1 L 215 37.8 L 213.4 38.1 L 215.9 38.1 Q 214.3 38.4 212.85 38.75 Q 211.4 39.1 210 39.6 L 203.9 39.6 A 25.058 25.058 0 0 0 203.123 39.836 A 22.036 22.036 0 0 0 200 41.1 L 198.8 41.1 Q 198.6 41.2 198.3 41.3 A 1.478 1.478 0 0 0 198.165 41.352 A 1.204 1.204 0 0 0 197.8 41.6 L 195 41.6 L 194.1 42.1 L 188.6 42.1 Q 187.8 42.5 187.05 43.05 Q 186.3 43.6 185.6 44.1 L 193.8 44.1 A 10.48 10.48 0 0 0 192.857 44.877 A 12.9 12.9 0 0 0 191.7 46.1 L 191.5 46.1 A 2.339 2.339 0 0 0 191.465 46.136 Q 191.37 46.235 191.275 46.357 A 4.019 4.019 0 0 0 191.1 46.6 A 4.572 4.572 0 0 1 191.072 46.642 Q 190.98 46.777 190.888 46.891 A 2.696 2.696 0 0 1 190.7 47.1 L 187.1 47.1 A 0.894 0.894 0 0 1 187.065 47.164 Q 186.991 47.286 186.853 47.439 A 4.09 4.09 0 0 1 186.7 47.6 L 188.9 47.6 L 188.3 48.6 L 194.2 48.6 Q 194.1 49 193.9 49.35 A 13.775 13.775 0 0 0 193.775 49.574 A 16.11 16.11 0 0 0 193.5 50.1 L 193.6 50.1 L 193.4 50.6 L 193.3 50.6 L 193.1 51.1 L 195.9 51.1 Q 195.8 51.5 195.7 52.05 Q 195.6 52.6 195.5 53.1 L 192.5 53.1 Q 192.441 53.338 192.417 53.628 A 5.109 5.109 0 0 0 192.4 54.05 L 192.4 55.1 L 192.4 56.1 L 189.1 56.1 A 5.545 5.545 0 0 0 189.102 56.244 Q 189.114 56.686 189.195 57.176 A 9.381 9.381 0 0 0 189.4 58.1 L 193.2 58.1 Q 193.3 58.5 193.4 58.85 Q 193.5 59.2 193.6 59.6 L 194.1 59.6 L 194.7 61.1 L 194.6 61.1 L 194.9 61.6 L 195.8 61.6 Q 196 62 196 62.1 L 196.9 62.1 Q 197.1 62.5 197.35 62.85 Q 197.6 63.2 197.8 63.6 L 194.8 63.6 A 2.339 2.339 0 0 1 194.835 63.636 Q 194.93 63.735 195.025 63.857 A 4.019 4.019 0 0 1 195.2 64.1 Q 195.4 64.4 195.5 64.6 L 196.4 65.6 L 201.4 65.6 L 202.6 66.6 Q 203.2 67.1 203.9 67.6 L 202.8 67.6 Q 204.6 68.8 206.8 69.6 L 203.7 69.6 Q 204.6 69.9 205.55 70.15 Q 206.5 70.4 207.5 70.6 L 206.7 70.6 Q 207.8 70.8 208.95 70.9 Q 210.1 71 211.3 71 Q 212.4 71 213.45 70.9 Q 214.5 70.8 215.5 70.6 L 216.3 70.6 Q 217.2 70.4 218.05 70.15 A 15.89 15.89 0 0 0 218.716 69.939 A 12.667 12.667 0 0 0 219.6 69.6 L 222.8 69.6 Q 224.6 68.9 226.4 67.6 L 227.5 67.6 Q 228.1 67.1 228.65 66.6 Q 229.2 66.1 229.7 65.6 L 233.7 65.6 L 233.7 67.6 L 228.9 67.6 A 3.78 3.78 0 0 0 228.932 67.78 A 2.82 2.82 0 0 0 230.1 69.6 L 229.3 69.6 A 1.565 1.565 0 0 0 229.629 69.801 Q 230.065 70 230.7 70 L 248.2 70 A 3.593 3.593 0 0 0 248.511 69.987 Q 249.19 69.928 249.6 69.6 L 250.5 69.6 A 2.375 2.375 0 0 0 251.544 68.494 A 3.167 3.167 0 0 0 251.8 67.6 L 256.5 67.6 A 0.296 0.296 0 0 0 256.556 67.523 Q 256.6 67.434 256.6 67.3 L 256.6 67.1 M 256.6 66.1 L 256.6 65.6 L 247.9 65.6 L 247.9 64.6 L 248.5 64.6 L 248.5 63.6 L 251.6 63.6 L 251.6 62.1 L 250.8 62.1 L 250.8 61.6 L 249.9 61.6 L 249.9 59.6 L 249.4 59.6 L 249.4 58.1 L 245.6 58.1 L 245.6 56.1 L 248.9 56.1 L 248.9 53.1 L 249.5 53.1 L 249.5 51.1 L 248.7 51.1 L 248.7 50.1 L 249.9 50.1 L 249.9 48.6 L 243.3 48.6 L 243.3 47.6 L 241.1 47.6 L 241.1 47.1 L 244.7 47.1 L 244.7 46.1 L 244.9 46.1 L 244.9 44.1 L 236.7 44.1 L 236.7 42.1 L 242.2 42.1 L 242.2 41.6 L 244.9 41.6 L 244.9 41.1 L 246 41.1 L 246 39.6 L 252.2 39.6 L 252.2 38.1 L 249.6 38.1 L 249.6 37.1 Q 249.6 36.6 249.5 36.1 L 249.5 35.6 L 254.5 35.6 L 254.5 35.1 L 244.9 35.1 Q 244.9 34.963 244.877 34.872 A 0.373 0.373 0 0 0 244.85 34.8 Q 244.8 34.7 244.8 34.6 L 250.6 34.6 L 250 31.6 L 248.3 31.6 Q 248.3 31.463 248.277 31.372 A 0.373 0.373 0 0 0 248.25 31.3 Q 248.2 31.2 248.2 31.1 L 244.9 31.1 A 1.233 1.233 0 0 1 244.86 31.01 Q 244.823 30.919 244.795 30.811 A 2.374 2.374 0 0 1 244.75 30.6 A 1.094 1.094 0 0 0 244.741 30.554 A 0.885 0.885 0 0 0 244.5 30.1 L 257.6 30.1 M 216.2 51.1 Q 216.4 50.9 216.6 50.8 L 217 50.6 L 217.1 50.6 A 1.155 1.155 0 0 1 217.294 50.444 A 1.362 1.362 0 0 1 217.6 50.3 L 218.2 50.1 Q 218.5 50 218.85 49.9 Q 219.2 49.8 219.6 49.7 L 224.5 48.6 L 226.2 48.6 L 226.2 49.35 A 2.713 2.713 0 0 1 226.18 49.678 A 3.473 3.473 0 0 1 226.1 50.1 L 224.9 50.1 L 224.9 50.6 L 224.8 50.6 A 0.408 0.408 0 0 1 224.791 50.688 A 0.482 0.482 0 0 1 224.75 50.8 Q 224.714 50.872 224.704 50.995 A 1.287 1.287 0 0 0 224.7 51.1 L 225.5 51.1 Q 225.4 51.7 225.2 52.15 Q 225 52.6 224.8 53.1 L 224.3 53.1 A 12.031 12.031 0 0 1 223.581 54.074 A 9.146 9.146 0 0 1 222.6 55.1 A 6.701 6.701 0 0 1 221.441 55.684 A 8.548 8.548 0 0 1 220 56.1 L 217.6 56.1 Q 216.639 55.908 216.089 55.552 A 1.774 1.774 0 0 1 215.6 55.1 A 2.755 2.755 0 0 1 215.579 55.078 A 2.312 2.312 0 0 1 214.9 53.4 L 214.9 53.1 L 217.9 53.1 A 2.238 2.238 0 0 1 218.374 51.697 A 3.034 3.034 0 0 1 219 51.1 L 216.2 51.1 Z M 216.7 56.1 A 1.865 1.865 0 0 1 216.488 56.157 A 2.157 2.157 0 0 1 216.05 56.2 L 215.4 56.2 Q 214.6 56.2 214.2 56.1 L 216.7 56.1 Z M 217.9 31.1 A 1.3 1.3 0 0 1 218.06 31.059 Q 218.264 31.019 218.575 31.006 A 7.84 7.84 0 0 1 218.9 31 A 12.398 12.398 0 0 1 218.954 31 Q 219.71 31.003 220 31.1 L 217.9 31.1 Z M 219.6 48.6 L 218.7 48.6 L 219.6 48.4 L 219.6 48.6 Z" id="3" vector-effect="non-scaling-stroke"/><path d="M 256.6 67.1 L 260.6 67.1 L 260.6 67.6 L 261.7 67.6 A 3.581 3.581 0 0 0 261.785 68.018 A 2.434 2.434 0 0 0 263 69.6 L 258.4 69.6 A 1.565 1.565 0 0 0 258.729 69.801 Q 259.165 70 259.8 70 L 278.8 70 A 3.593 3.593 0 0 0 279.111 69.987 Q 279.79 69.928 280.2 69.6 L 284.8 69.6 A 2.375 2.375 0 0 0 285.844 68.494 A 3.167 3.167 0 0 0 286.1 67.6 L 285 67.6 L 285 67.1 L 280.7 67.1 L 280.7 66.1 L 284.5 66.1 L 284.5 64.6 L 284.3 64.6 L 284.3 62.6 L 290.5 62.6 L 290.5 60.6 L 288.2 60.6 L 288.2 60.1 L 282.7 60.1 L 282.7 59.6 L 282.4 59.6 L 282.4 59.1 L 282.5 59.1 L 282.5 58.1 L 281.3 58.1 L 281.3 56.1 L 282.4 56.1 L 282.4 54.1 L 281.9 54.1 L 281.9 52.1 L 284.7 52.1 L 284.7 50.1 L 282.1 50.1 L 282.1 48.1 L 282.5 48.1 L 282.5 47.1 L 281.8 47.1 L 281.8 46.6 L 280.7 46.6 L 280.7 45.1 L 281.4 45.1 L 281.4 44.6 L 282.1 44.6 L 282.1 43.6 L 282.4 43.6 L 282.4 42.6 L 282.2 42.6 L 282.2 41.6 L 278.9 41.6 L 278.9 40.6 L 279.6 40.6 L 279.6 40.4 A 13.216 13.216 0 0 1 279.606 40.004 Q 279.624 39.406 279.7 39.1 L 279.2 39.1 A 19.337 19.337 0 0 1 279.214 39.026 Q 279.407 37.986 279.6 37.6 L 282.6 37.6 A 3.118 3.118 0 0 1 282.734 37.224 A 2.45 2.45 0 0 1 283.25 36.45 Q 283.7 36 284.2 35.6 L 281.8 35.6 Q 282.488 35.119 283.553 34.968 A 7.507 7.507 0 0 1 284.6 34.9 Q 286.4 34.9 287.5 35.6 L 290.7 35.6 A 4.302 4.302 0 0 1 291.581 36.342 A 4.931 4.931 0 0 1 292.4 37.6 L 290.6 37.6 Q 290.7 37.9 290.8 38.25 Q 290.9 38.6 291 39.1 L 289 39.1 Q 289 39.4 289.05 39.7 A 2.995 2.995 0 0 1 289.063 39.787 Q 289.082 39.92 289.091 40.071 A 5.414 5.414 0 0 1 289.1 40.4 L 289.1 40.6 L 288 40.6 L 288 41.6 L 292.2 41.6 L 292.2 42.6 L 292.5 42.6 L 292.5 43.6 L 292.6 43.6 L 292.6 44.6 L 292.1 44.6 L 292.1 45.1 L 291.5 45.1 L 291.5 46.6 L 291.9 46.6 L 291.9 47.1 L 292.3 47.1 L 292.3 48.1 L 293.4 48.1 L 293.4 50.1 L 288.8 50.1 L 288.8 52.1 L 287.8 52.1 L 287.8 54.1 L 291.9 54.1 L 291.9 56.1 L 290.6 56.1 L 290.6 58.1 L 292.2 58.1 L 292.2 59.1 L 292.1 59.1 L 292.1 60.1 L 295.4 60.1 L 295.4 60.6 L 291.7 60.6 L 291.7 62.6 L 306.6 62.6 L 306.6 64.6 L 298.1 64.6 L 298.1 66.1 L 296.7 66.1 L 296.7 67.1 L 290.5 67.1 L 290.5 67.6 L 293.7 67.6 A 3.64 3.64 0 0 0 293.876 68.324 A 2.375 2.375 0 0 0 294.9 69.6 L 292.7 69.6 A 1.565 1.565 0 0 0 293.029 69.801 Q 293.465 70 294.1 70 L 313.2 70 A 4.048 4.048 0 0 0 313.718 69.969 Q 313.99 69.934 314.211 69.859 A 1.588 1.588 0 0 0 314.7 69.6 L 316.9 69.6 A 2.347 2.347 0 0 0 317.876 68.45 A 3.514 3.514 0 0 0 318.1 67.6 L 315 67.6 L 315 67.1 L 321.2 67.1 L 321.2 66.1 L 322.6 66.1 L 322.6 64.6 L 331.1 64.6 L 331.1 62.6 L 316.2 62.6 L 316.2 60.6 L 319.9 60.6 L 319.9 60.1 L 316.6 60.1 L 316.6 59.1 L 316.7 59.1 L 316.7 58.1 L 315.1 58.1 L 315.1 56.1 L 316.4 56.1 L 316.4 54.1 L 312.3 54.1 L 312.3 52.1 L 313.3 52.1 L 313.3 50.1 L 317.9 50.1 L 317.9 48.1 L 316.8 48.1 L 316.8 47.1 L 316.4 47.1 L 316.4 46.6 L 316 46.6 L 316 45.1 L 316.6 45.1 L 316.6 44.6 L 317.1 44.6 L 317.1 43.6 L 317 43.6 L 317 42.6 L 316.7 42.6 L 316.7 41.6 L 312.5 41.6 L 312.5 40.6 L 313.6 40.6 L 313.6 39.1 L 315.5 39.1 L 315.5 37.6 L 317.3 37.6 A 10.431 10.431 0 0 0 317.296 37.315 A 12.112 12.112 0 0 0 317.25 36.55 A 9.08 9.08 0 0 0 317.234 36.392 Q 317.21 36.168 317.177 35.972 A 4.909 4.909 0 0 0 317.1 35.6 L 313.9 35.6 A 3.572 3.572 0 0 1 313.832 35.26 A 2.785 2.785 0 0 1 313.8 34.85 A 2.713 2.713 0 0 0 313.78 34.523 A 3.473 3.473 0 0 0 313.7 34.1 L 315.8 34.1 A 2.075 2.075 0 0 0 315.776 33.796 Q 315.73 33.491 315.6 33.1 L 316.3 33.1 A 8.476 8.476 0 0 1 316.222 32.76 A 6.733 6.733 0 0 1 316.15 32.35 A 1.806 1.806 0 0 0 316.142 32.301 Q 316.113 32.127 316.047 31.94 A 3.038 3.038 0 0 0 315.9 31.6 L 315.5 31.6 A 8.476 8.476 0 0 1 315.422 31.26 A 6.733 6.733 0 0 1 315.35 30.85 A 1.806 1.806 0 0 0 315.342 30.801 Q 315.313 30.627 315.247 30.44 A 3.038 3.038 0 0 0 315.1 30.1 L 315.2 30.1 A 8.576 8.576 0 0 1 315.195 30.09 Q 315 29.699 315 29.6 A 14.839 14.839 0 0 0 314.935 29.408 Q 314.788 28.987 314.599 28.524 A 25.373 25.373 0 0 0 314.2 27.6 L 314.7 27.6 A 7.737 7.737 0 0 1 314.591 27.413 A 6.84 6.84 0 0 1 314.2 26.6 L 314.1 26.6 L 313.2 25.1 L 314.5 25.1 L 314.2 24.6 L 313.3 24.6 Q 313.1 24.2 312.8 23.85 Q 312.5 23.5 312.2 23.1 L 310.8 23.1 A 1.826 1.826 0 0 0 310.735 22.98 Q 310.702 22.925 310.669 22.881 A 0.731 0.731 0 0 0 310.6 22.8 L 310.4 22.6 L 315.9 22.6 Q 315.5 22 314.9 21.6 L 307.1 21.6 Q 306.7 21.1 306.2 20.75 Q 305.7 20.4 305.2 20.1 L 306.6 20.1 A 12.437 12.437 0 0 0 306.55 20.063 A 11.378 11.378 0 0 0 305.8 19.55 Q 305.4 19.3 304.9 19.1 L 303.8 19.1 Q 299.8 17 294.8 17 A 26.473 26.473 0 0 0 294.779 17 A 24.128 24.128 0 0 0 289.6 17.55 Q 287.1 18.1 284.9 19.1 L 283.2 19.1 A 3.233 3.233 0 0 0 283.171 19.06 Q 282.375 18 281 18 L 263.5 18 A 3.269 3.269 0 0 0 263.118 18.022 A 2.531 2.531 0 0 0 261.3 19.1 L 264.5 19.1 A 5.133 5.133 0 0 0 264.406 19.299 Q 264.253 19.641 264.1 20.1 L 258.7 20.1 L 258.7 21.6 L 255.8 21.6 L 255.8 22.6 L 259.8 22.6 L 259.8 23.1 L 258.6 23.1 L 258.6 24.6 L 259.4 24.6 L 259.4 25.1 L 258.1 25.1 L 258.1 26.6 L 258.2 26.6 L 258.2 27.6 L 257.7 27.6 L 257.7 29.6 M 257.6 30.1 L 257.6 31.6 L 258 31.6 L 258 33.1 L 257.4 33.1 L 257.4 34.1 L 255.2 34.1 L 255.2 35.6 L 257.7 35.6 L 257.7 37.6 L 254.7 37.6 L 254.7 39.1 L 255.2 39.1 L 255.2 40.6 L 254.5 40.6 L 254.5 41.6 L 257.8 41.6 L 257.8 42.6 L 258 42.6 L 258 43.6 L 257.7 43.6 L 257.7 44.6 L 257 44.6 L 257 45.1 L 256.3 45.1 L 256.3 46.6 L 257.4 46.6 L 257.4 47.1 L 258.1 47.1 L 258.1 48.1 L 257.7 48.1 L 257.7 50.1 L 260.3 50.1 L 260.3 52.1 L 257.5 52.1 L 257.5 54.1 L 258 54.1 L 258 56.1 L 256.9 56.1 L 256.9 58.1 L 258.1 58.1 L 258.1 59.1 L 258 59.1 L 258 59.6 L 258.3 59.6 L 258.3 60.1 L 263.8 60.1 L 263.8 60.6 L 266.1 60.6 L 266.1 62.6 L 259.9 62.6 L 259.9 64.6 L 260.1 64.6 L 260.1 66.1 L 256.6 66.1 M 288.2 21.6 L 287 22.6 L 278.7 22.6 L 278.7 21.6 L 288.2 21.6 Z M 282.6 20.1 A 2.276 2.276 0 0 0 282.591 20.105 Q 282.394 20.205 282.1 20.4 A 4.572 4.572 0 0 0 282.058 20.428 Q 281.923 20.52 281.81 20.613 A 2.696 2.696 0 0 0 281.6 20.8 L 281.6 20.7 A 1.564 1.564 0 0 0 281.6 20.675 Q 281.597 20.491 281.55 20.35 Q 281.5 20.2 281.5 20.1 L 282.6 20.1 Z M 282.3 23.1 A 19.909 19.909 0 0 0 282.29 23.11 Q 281.699 23.703 281.5 24 L 281.5 23.1 L 282.3 23.1 Z" id="4" vector-effect="non-scaling-stroke"/></g></svg>