<svg width="88.926" height="17.9" viewBox="0 0 88.926 17.9" xmlns="http://www.w3.org/2000/svg"><g id="svgGroup" stroke-linecap="round" fill-rule="evenodd" font-size="9pt" stroke="#000" stroke-width="0.25mm" fill="#000" style="stroke:#000;stroke-width:0.25mm;fill:#000"><path d="M 23.275 5.1 L 25.4 5.1 L 25.4 17.7 L 23.275 17.7 L 23.275 15.325 Q 22.6 16.5 21.475 17.2 A 4.664 4.664 0 0 1 19.038 17.899 A 5.549 5.549 0 0 1 18.95 17.9 A 5.201 5.201 0 0 1 17.414 17.683 A 4.173 4.173 0 0 1 15.713 16.675 Q 14.45 15.45 14.45 13.45 L 14.45 5.1 L 16.575 5.1 L 16.575 13.05 A 3.554 3.554 0 0 0 16.698 14.009 A 2.695 2.695 0 0 0 17.35 15.163 A 2.577 2.577 0 0 0 18.872 15.935 A 3.656 3.656 0 0 0 19.425 15.975 A 3.517 3.517 0 0 0 20.837 15.7 Q 21.597 15.371 22.155 14.649 A 4.263 4.263 0 0 0 22.238 14.538 Q 23.094 13.351 23.244 11.456 A 10.584 10.584 0 0 0 23.275 10.625 L 23.275 5.1 Z M 11.775 9 L 9.675 9.425 Q 9.475 8.275 8.55 7.537 A 3.366 3.366 0 0 0 6.783 6.826 A 4.39 4.39 0 0 0 6.3 6.8 A 4.38 4.38 0 0 0 4.925 7.006 A 3.573 3.573 0 0 0 3.338 8.063 A 4.325 4.325 0 0 0 2.369 10.014 A 6.332 6.332 0 0 0 2.225 11.4 A 6.287 6.287 0 0 0 2.38 12.835 A 4.311 4.311 0 0 0 3.338 14.738 A 3.665 3.665 0 0 0 5.904 15.985 A 5.087 5.087 0 0 0 6.3 16 A 4.311 4.311 0 0 0 7.361 15.875 A 3.269 3.269 0 0 0 8.563 15.3 A 3.042 3.042 0 0 0 9.636 13.709 A 4.005 4.005 0 0 0 9.725 13.35 L 11.8 13.775 A 5.285 5.285 0 0 1 11.161 15.456 A 4.63 4.63 0 0 1 9.913 16.813 A 5.564 5.564 0 0 1 7.543 17.794 A 7.56 7.56 0 0 1 6.25 17.9 Q 3.45 17.9 1.725 16.113 A 6.041 6.041 0 0 1 0.122 12.874 A 8.559 8.559 0 0 1 0 11.4 Q 0 8.475 1.725 6.687 A 5.768 5.768 0 0 1 5.32 4.953 A 7.975 7.975 0 0 1 6.25 4.9 A 7.196 7.196 0 0 1 7.98 5.098 A 5.389 5.389 0 0 1 9.938 6.013 Q 11.425 7.125 11.775 9 Z M 55.225 11.8 L 45.275 11.8 A 5.643 5.643 0 0 0 45.52 13.21 A 4.176 4.176 0 0 0 46.488 14.862 A 3.706 3.706 0 0 0 49.188 16.024 A 4.888 4.888 0 0 0 49.3 16.025 A 5.326 5.326 0 0 0 50.357 15.926 Q 51.121 15.771 51.7 15.375 Q 52.65 14.725 52.925 13.55 L 54.925 14.025 Q 54.45 15.85 52.963 16.875 A 5.688 5.688 0 0 1 50.775 17.768 A 7.851 7.851 0 0 1 49.3 17.9 A 6.654 6.654 0 0 1 47.225 17.591 A 5.436 5.436 0 0 1 44.838 16.025 Q 43.15 14.15 43.15 11.4 A 7.632 7.632 0 0 1 43.486 9.091 A 6.315 6.315 0 0 1 44.813 6.763 A 5.479 5.479 0 0 1 48.492 4.937 A 7.62 7.62 0 0 1 49.25 4.9 A 7.028 7.028 0 0 1 51.215 5.161 A 5.365 5.365 0 0 1 53.625 6.612 A 5.825 5.825 0 0 1 55.275 10.747 A 7.521 7.521 0 0 1 55.275 10.825 A 9.691 9.691 0 0 1 55.258 11.422 A 7.756 7.756 0 0 1 55.225 11.8 Z M 30.975 15.875 L 30.975 17.7 L 28.85 17.7 L 28.85 0 L 30.975 0 L 30.975 6.9 A 3.926 3.926 0 0 1 32.024 5.849 A 5.144 5.144 0 0 1 32.713 5.45 Q 33.85 4.9 35.1 4.9 A 7.192 7.192 0 0 1 36.987 5.134 A 5.133 5.133 0 0 1 39.55 6.713 A 6.274 6.274 0 0 1 41.009 9.784 A 8.834 8.834 0 0 1 41.15 11.4 Q 41.15 14.275 39.538 16.087 Q 37.925 17.9 35.075 17.9 A 5.731 5.731 0 0 1 33.215 17.603 A 5.321 5.321 0 0 1 32.55 17.325 A 4.539 4.539 0 0 1 31.831 16.884 Q 31.433 16.581 31.179 16.219 A 2.481 2.481 0 0 1 30.975 15.875 Z M 74.525 15.65 L 74.675 17.6 A 4.669 4.669 0 0 1 73.83 17.815 Q 73.311 17.9 72.7 17.9 A 4.74 4.74 0 0 1 71.533 17.764 A 3.348 3.348 0 0 1 69.988 16.913 Q 69.149 16.095 69.005 14.583 A 6.936 6.936 0 0 1 68.975 13.925 L 68.975 6.975 L 66.625 6.975 L 66.625 5.1 L 68.975 5.1 L 68.975 1.275 L 71.1 1.275 L 71.1 5.1 L 74.475 5.1 L 74.475 6.975 L 71.1 6.975 L 71.1 14 A 3.035 3.035 0 0 0 71.149 14.563 Q 71.257 15.131 71.6 15.475 Q 72.1 15.975 72.95 15.975 A 4.409 4.409 0 0 0 73.656 15.921 Q 74.06 15.856 74.396 15.71 A 2.609 2.609 0 0 0 74.525 15.65 Z M 65.5 5.125 L 65.375 7.175 A 3.608 3.608 0 0 0 64.517 6.932 A 4.887 4.887 0 0 0 63.75 6.875 Q 62.15 6.875 61.138 8.413 A 5.225 5.225 0 0 0 60.521 9.764 Q 60.317 10.43 60.218 11.243 A 13.775 13.775 0 0 0 60.125 12.9 L 60.125 17.7 L 58 17.7 L 58 5.1 L 60.125 5.1 L 60.125 7.65 Q 60.675 6.45 61.775 5.675 A 4.467 4.467 0 0 1 62.821 5.12 A 3.575 3.575 0 0 1 64.05 4.9 Q 64.875 4.9 65.5 5.125 Z M 87.113 16.063 Q 85.3 17.9 82.5 17.9 Q 79.7 17.9 77.9 16.063 A 6.239 6.239 0 0 1 76.125 12.049 A 8.354 8.354 0 0 1 76.1 11.4 Q 76.1 8.575 77.9 6.737 A 6.05 6.05 0 0 1 81.984 4.916 A 8.125 8.125 0 0 1 82.5 4.9 A 6.993 6.993 0 0 1 84.761 5.252 A 5.958 5.958 0 0 1 87.113 6.738 A 6.228 6.228 0 0 1 88.904 10.794 A 8.329 8.329 0 0 1 88.925 11.4 A 7.219 7.219 0 0 1 88.578 13.683 A 6.07 6.07 0 0 1 87.113 16.063 Z M 79.45 8.087 A 4.432 4.432 0 0 0 78.349 10.434 A 6.129 6.129 0 0 0 78.275 11.4 A 5.701 5.701 0 0 0 78.468 12.92 A 4.324 4.324 0 0 0 79.45 14.713 Q 80.625 16 82.5 16 A 4.443 4.443 0 0 0 83.982 15.762 A 3.809 3.809 0 0 0 85.55 14.713 A 4.432 4.432 0 0 0 86.652 12.366 A 6.129 6.129 0 0 0 86.725 11.4 A 5.701 5.701 0 0 0 86.532 9.88 A 4.324 4.324 0 0 0 85.55 8.087 Q 84.375 6.8 82.5 6.8 A 4.443 4.443 0 0 0 81.018 7.038 A 3.809 3.809 0 0 0 79.45 8.087 Z M 31.9 8.063 A 4.315 4.315 0 0 0 30.914 10.041 A 6.29 6.29 0 0 0 30.775 11.4 Q 30.775 13.475 31.9 14.737 A 3.711 3.711 0 0 0 34.507 15.987 A 5.115 5.115 0 0 0 34.875 16 A 4.396 4.396 0 0 0 36.259 15.792 A 3.621 3.621 0 0 0 37.85 14.737 A 4.315 4.315 0 0 0 38.836 12.759 A 6.29 6.29 0 0 0 38.975 11.4 Q 38.975 9.325 37.85 8.062 A 3.711 3.711 0 0 0 35.244 6.813 A 5.115 5.115 0 0 0 34.875 6.8 A 4.396 4.396 0 0 0 33.492 7.008 A 3.621 3.621 0 0 0 31.9 8.063 Z M 45.4 10.025 L 53.025 10.025 Q 52.875 8.525 51.875 7.6 A 3.408 3.408 0 0 0 50.16 6.757 A 4.852 4.852 0 0 0 49.25 6.675 A 4.065 4.065 0 0 0 47.927 6.883 A 3.527 3.527 0 0 0 46.75 7.562 A 3.935 3.935 0 0 0 45.676 9.097 A 5.406 5.406 0 0 0 45.4 10.025 Z" vector-effect="non-scaling-stroke"/></g></svg>